<?xml version="1.0" encoding="UTF-8" standalone="no"?>
<svg
   xmlns:dc="http://purl.org/dc/elements/1.1/"
   xmlns:cc="http://creativecommons.org/ns#"
   xmlns:rdf="http://www.w3.org/1999/02/22-rdf-syntax-ns#"
   xmlns:svg="http://www.w3.org/2000/svg"
   xmlns="http://www.w3.org/2000/svg"
   xmlns:sodipodi="http://sodipodi.sourceforge.net/DTD/sodipodi-0.dtd"
   xmlns:inkscape="http://www.inkscape.org/namespaces/inkscape"
   viewBox="0 0 97.960368 92.372788"
   height="92.372787"
   width="97.960365"
   xml:space="preserve"
   id="svg2"
   version="1.1"
   sodipodi:docname="positivo-logo.svg"
   inkscape:version="0.92.2 (5c3e80d, 2017-08-06)"><sodipodi:namedview
     pagecolor="#ffffff"
     bordercolor="#666666"
     borderopacity="1"
     objecttolerance="10"
     gridtolerance="10"
     guidetolerance="10"
     inkscape:pageopacity="0"
     inkscape:pageshadow="2"
     inkscape:window-width="1600"
     inkscape:window-height="837"
     id="namedview194"
     showgrid="false"
     fit-margin-top="0"
     fit-margin-left="0"
     fit-margin-right="0"
     fit-margin-bottom="0"
     inkscape:zoom="2.9435326"
     inkscape:cx="54.537468"
     inkscape:cy="62.06715"
     inkscape:window-x="-8"
     inkscape:window-y="-8"
     inkscape:window-maximized="1"
     inkscape:current-layer="g10" /><metadata
     id="metadata8"><rdf:RDF><cc:Work
         rdf:about=""><dc:format>image/svg+xml</dc:format><dc:type
           rdf:resource="http://purl.org/dc/dcmitype/StillImage" /><dc:title></dc:title></cc:Work></rdf:RDF></metadata><defs
     id="defs6"><clipPath
       id="clipPath62"
       clipPathUnits="userSpaceOnUse"><path
         id="path60"
         d="M 0,0 H 198.425 V 340.157 H 0 Z"
         inkscape:connector-curvature="0" /></clipPath><clipPath
       id="clipPath90"
       clipPathUnits="userSpaceOnUse"><path
         id="path88"
         d="M 0,0 H 198.425 V 340.157 H 0 Z"
         inkscape:connector-curvature="0" /></clipPath><clipPath
       id="clipPath122"
       clipPathUnits="userSpaceOnUse"><path
         id="path120"
         d="M 0,0 H 198.425 V 340.157 H 0 Z"
         inkscape:connector-curvature="0" /></clipPath><clipPath
       id="clipPath140"
       clipPathUnits="userSpaceOnUse"><path
         id="path138"
         d="M 0,0 H 198.425 V 340.157 H 0 Z"
         inkscape:connector-curvature="0" /></clipPath><clipPath
       id="clipPath158"
       clipPathUnits="userSpaceOnUse"><path
         id="path156"
         d="M 0,0 H 198.425 V 340.157 H 0 Z"
         inkscape:connector-curvature="0" /></clipPath><clipPath
       id="clipPath204"
       clipPathUnits="userSpaceOnUse"><path
         id="path202"
         d="M 0,0 H 198.425 V 340.157 H 0 Z"
         inkscape:connector-curvature="0" /></clipPath><clipPath
       id="clipPath226"
       clipPathUnits="userSpaceOnUse"><path
         id="path224"
         d="M 0,0 H 198.425 V 340.157 H 0 Z"
         inkscape:connector-curvature="0" /></clipPath><clipPath
       id="clipPath378"
       clipPathUnits="userSpaceOnUse"><path
         id="path376"
         d="M 0,0 H 198.425 V 340.157 H 0 Z"
         inkscape:connector-curvature="0" /></clipPath></defs><g
     transform="matrix(1.3333333,0,0,-1.3333333,-82.020031,171.42533)"
     id="g10"><g
       id="g220"
       style="fill:#000000"
       inkscape:export-filename="C:\Users\suitedoalex\sites\positivo-logo-7.png"
       inkscape:export-xdpi="50.800247"
       inkscape:export-ydpi="50.800247"><g
         clip-path="url(#clipPath226)"
         id="g222"
         style="fill:#000000"><g
           transform="translate(64.1195,104.3492)"
           id="g348"
           style="fill:#000000"><path
             id="path350"
             style="fill:#000000;fill-opacity:1;fill-rule:nonzero;stroke:none"
             d="m 0,0 c 0,0 1.953,-0.002 4.164,-0.002 4.32,0 5.251,-0.561 5.251,-3.688 0,-2.854 -1.023,-3.48 -4.99,-3.48 H 3.388 v -3.2 H 0 Z m 4.501,-5.064 c 1.465,0 1.541,0.139 1.541,1.374 0,1.45 -0.076,1.464 -1.541,1.464 H 3.388 v -2.823 c 0.289,-0.015 0.684,-0.015 1.113,-0.015"
             inkscape:connector-curvature="0" /></g><g
           transform="translate(74.5248,99.1481)"
           id="g352"
           style="fill:#000000"><path
             id="path354"
             style="fill:#000000;fill-opacity:1;fill-rule:nonzero;stroke:none"
             d="M 0,0 C 0,4.164 0.777,5.354 4.852,5.354 8.939,5.354 9.688,4.164 9.688,0 9.688,-4.132 8.939,-5.321 4.852,-5.321 0.777,-5.321 0,-4.132 0,0 m 6.346,0 c 0,2.792 -0.077,2.976 -1.494,2.976 -1.419,0 -1.48,-0.184 -1.48,-2.976 0,-2.774 0.061,-2.958 1.48,-2.958 1.417,0 1.494,0.184 1.494,2.958"
             inkscape:connector-curvature="0" /></g><g
           transform="translate(85.4105,96.3278)"
           id="g356"
           style="fill:#000000"><path
             id="path358"
             style="fill:#000000;fill-opacity:1;fill-rule:nonzero;stroke:none"
             d="m 0,0 c 0,0 1.312,-0.093 2.9,-0.093 1.892,0 2.41,0.137 2.41,0.701 0,0.398 -0.137,0.58 -0.778,0.733 L 2.396,1.875 c -2.135,0.595 -2.609,1.16 -2.609,3.052 0,2.226 1.343,3.248 4.775,3.248 1.603,0 3.205,-0.166 3.205,-0.166 L 7.736,5.658 c 0,0 -1.42,0.076 -2.822,0.076 -1.573,0 -1.969,-0.104 -1.969,-0.687 0,-0.442 0.214,-0.609 0.93,-0.763 L 6.058,3.798 C 8.192,3.264 8.454,2.394 8.454,0.731 c 0,-2.502 -1.558,-3.232 -4.867,-3.232 -1.725,0 -3.601,0.167 -3.601,0.167 z"
             inkscape:connector-curvature="0" /></g></g></g><path
       id="path360"
       style="fill:#000000;fill-opacity:1;fill-rule:nonzero;stroke:none"
       d="M 95.072,104.35 H 98.46 V 93.979 h -3.388 z"
       inkscape:connector-curvature="0"
       inkscape:export-filename="C:\Users\suitedoalex\sites\positivo-logo-7.png"
       inkscape:export-xdpi="50.800247"
       inkscape:export-ydpi="50.800247" /><g
       transform="translate(102.4427,102.0182)"
       id="g362"
       style="fill:#000000"
       inkscape:export-filename="C:\Users\suitedoalex\sites\positivo-logo-7.png"
       inkscape:export-xdpi="50.800247"
       inkscape:export-ydpi="50.800247"><path
         id="path364"
         style="fill:#000000;fill-opacity:1;fill-rule:nonzero;stroke:none"
         d="M 0,0 H -2.794 V 2.332 H 6.147 V 0 H 3.37 V -8.039 H 0 Z"
         inkscape:connector-curvature="0" /></g><path
       id="path366"
       style="fill:#000000;fill-opacity:1;fill-rule:nonzero;stroke:none"
       d="m 109.779,104.35 h 3.386 V 93.979 h -3.386 z"
       inkscape:connector-curvature="0"
       inkscape:export-filename="C:\Users\suitedoalex\sites\positivo-logo-7.png"
       inkscape:export-xdpi="50.800247"
       inkscape:export-ydpi="50.800247" /><g
       transform="translate(121.4652,104.3502)"
       id="g368"
       style="fill:#000000"
       inkscape:export-filename="C:\Users\suitedoalex\sites\positivo-logo-7.png"
       inkscape:export-xdpi="50.800247"
       inkscape:export-ydpi="50.800247"><path
         id="path370"
         style="fill:#000000;fill-opacity:1;fill-rule:nonzero;stroke:none"
         d="M 0,0 H 3.416 L 0.549,-10.371 H -4.287 L -7.171,0 h 3.417 l 1.884,-8.54 z"
         inkscape:connector-curvature="0" /></g><g
       id="g372"
       style="fill:#ff5555"
       inkscape:export-filename="C:\Users\suitedoalex\sites\positivo-logo-7.png"
       inkscape:export-xdpi="50.800247"
       inkscape:export-ydpi="50.800247"><g
         clip-path="url(#clipPath378)"
         id="g374"
         style="fill:#ff5555"><g
           transform="translate(125.2943,99.1481)"
           id="g380"
           style="fill:#000000"><path
             id="path382"
             style="fill:#000000;fill-opacity:1;fill-rule:nonzero;stroke:none"
             d="m 0,0 c 0,4.164 0.777,5.354 4.851,5.354 4.091,0 4.84,-1.19 4.84,-5.354 0,-4.132 -0.749,-5.321 -4.84,-5.321 C 0.777,-5.321 0,-4.132 0,0 M 6.348,0 C 6.348,2.792 6.271,2.976 4.851,2.976 3.432,2.976 3.372,2.792 3.372,0 c 0,-2.774 0.06,-2.958 1.479,-2.958 1.42,0 1.497,0.184 1.497,2.958"
             inkscape:connector-curvature="0" /></g><g
           transform="translate(99.4984,128.569)"
           id="g384"
           style="fill:#00b5e2;fill-opacity:1"><path
             id="path386"
             style="fill:#00b5e2;fill-opacity:1;fill-rule:nonzero;stroke:none"
             d="m 0,0 c -3.932,0 -7.295,-2.224 -9.117,-5.41 -1.229,-2.147 -1.623,-5.164 -0.889,-7.713 1.409,0.124 2.821,0.324 3.749,0.661 0.732,0.268 1.093,0.828 1.166,0.939 1.494,2.239 1.768,3.815 2.232,4.35 1.837,2.118 2.004,4.325 2.02,4.973 0.017,0.693 1.004,1.032 1.453,0.244 0.341,-0.597 0.607,-1.337 0.537,-2.3 -0.105,-1.434 -1.226,-2.549 -0.861,-3.348 0.119,-0.258 0.4,-0.451 0.678,-0.488 0.748,-0.1 1.38,-0.115 4.432,-0.797 0.386,-0.087 0.7,-0.286 0.828,-0.743 0.163,-0.583 -0.235,-0.792 -0.237,-1.337 -10e-4,-0.51 0.57,-0.66 0.54,-1.33 -0.036,-0.758 -0.626,-0.73 -0.723,-1.271 -0.099,-0.427 0.267,-0.653 0.072,-1.194 -0.211,-0.59 -0.609,-0.524 -0.848,-0.88 -0.287,-0.425 0.046,-0.676 -0.221,-1.194 -0.153,-0.294 -0.334,-0.441 -0.981,-0.627 -1.339,-0.384 -2.011,-0.499 -3.044,-0.605 -1.173,-0.123 -1.713,-0.023 -3.043,-0.206 -0.608,-0.091 -1.771,-0.328 -3.029,-1.036 1.535,-0.893 3.383,-1.448 5.286,-1.448 5.734,0 10.384,4.65 10.384,10.381 C 10.384,-4.645 5.734,0 0,0"
             inkscape:connector-curvature="0" /></g></g></g><text
       xml:space="preserve"
       style="font-style:normal;font-weight:normal;font-size:6.37036419px;line-height:1.25;font-family:sans-serif;letter-spacing:0px;word-spacing:0px;fill:#000000;fill-opacity:1;stroke:none;stroke-width:0.14930542"
       x="60.889809"
       y="-59.379612"
       id="text1003"
       transform="scale(1,-1)"><tspan
         sodipodi:role="line"
         id="tspan1001"
         x="60.889809"
         y="-59.379612"
         style="stroke-width:0.14930542">LOGODOWNLOAD.ORG</tspan></text>
</g></svg>