
        <svg xmlns="http://www.w3.org/2000/svg" xmlns:xlink="http://www.w3.org/1999/xlink" version="1.1" width="3196.72131147541" height="855.9227302426198" viewBox="0 0 3196.72131147541 855.9227302426198">
			
			<g transform="scale(9.836065573770492) translate(10, 10)">
				<defs id="SvgjsDefs1059"/><g id="SvgjsG1060" featureKey="tOsHRK-0" transform="matrix(1.7708333333333335,0,0,1.7708333333333335,0,-8.958726922671001)" fill="#000"><path xmlns="http://www.w3.org/2000/svg" d="M47,26.6h-7.7l-3.6-6.2l3.9-6.7c0.3-0.5,0.1-1.1-0.4-1.4c-0.5-0.3-1.1-0.1-1.4,0.4l-3.9,6.7h-7.2l-3.5-6.1l3.9-6.7  c0.3-0.5,0.1-1.1-0.4-1.4c-0.5-0.3-1.1-0.1-1.4,0.4l-3.9,6.7h-7.5l-3.9-6.7C9.9,5.1,9.3,4.9,8.8,5.2C8.3,5.5,8.2,6.1,8.5,6.6l4,6.9  L9,19.4H1c-0.6,0-1,0.4-1,1s0.4,1,1,1h8l3.6,6.2l-3.9,6.7c-0.3,0.5-0.1,1.1,0.4,1.4c0.2,0.1,0.8,0.3,1.4-0.4l3.9-6.7h7.2l3.5,6.1  l-3.9,6.7c-0.3,0.5-0.1,1.1,0.4,1.4c0.2,0.1,0.9,0.3,1.4-0.4l3.9-6.7h7.2l3.9,6.7c0.5,0.7,1.2,0.5,1.4,0.4c0.5-0.3,0.6-0.9,0.4-1.4  l-3.9-6.7l3.6-6.2H47c0.6,0,1-0.4,1-1S47.5,26.6,47,26.6z M21.5,26.6h-7.1l-3.6-6.2l3.6-6.2h7.1l3.6,6.2L21.5,26.6z M34,33.8h-7.1  l-3.6-6.2l3.5-6.1H34l3.6,6.2L34,33.8z"/></g><g id="SvgjsG1061" featureKey="dVtZHI-0" transform="matrix(1.136960192861314,0,0,1.136960192861314,103.10248076600125,17.368796431455017)" fill="#000"><path d="M10.762 10.9648 l-0.000019531 -2.3476 l6.8863 0 l-0.04211 5.7538 c-0.0408 2.8018 -2.5178 5.6468 -7.96 5.6866 c-0.038984 0.0002539 -0.078086 0.00039062 -0.11693 0.00039062 c-2.772 0 -4.9682 -0.72706 -6.357 -2.1058 c-0.98342 -0.97634 -1.5033 -2.2206 -1.5033 -3.5984 l0 -1.174 l2.3477 0 l0 1.1738 c0 0.7489 0.2723 1.3989 0.8096 1.9323 c0.94078 0.93398 2.6448 1.4387 4.8028 1.4238 c3.8522 -0.028242 5.6026 -1.7116 5.6298 -3.3688 l0.024726 -3.3762 l-4.5213 0 z M46.298 8.475 c1.4873 0 3.7 0.91594 3.7 3.4388 s-2.0564 3.4388 -3.4388 3.4388 l-10.172 0 l-0.016738 4.5342 l-2.3476 -0.0087696 l0.037794 -10.227 l0 -1.1757 l0.0043164 0 l0 -0.0043164 l1.1738 0.0043164 l11.059 0 z M47.21 12.823599999999999 c0.21816 -0.12072 0.4413 -0.32304 0.44118 -0.90952 c0 -0.47164 -0.15957 -0.72696 -0.56948 -0.91072 c-0.3725 -0.16701 -0.77926 -0.18049 -0.78304 -0.18049 l-9.8895 0 l0 2.1822 l10.141 0 c0.1024 -0.0035352 0.40818 -0.04211 0.66022 -0.18152 z M66.3572 8.475 l15.938 0 l0 2.3477 l-6.7954 0 l0 9.0932 l-2.3476 0 l0 -9.0932 l-6.7946 0 l0 -2.3477 z M114.60900000000001 10.9512 l-13.59 0.000019531 l0 2.1863 l9.0642 0.03375 l-0.0086328 2.3478 l-9.0556 -0.03375 l0 2.1782 l13.59 0 l0 2.3477 l-15.938 0 l0 -11.407 l15.938 0 l0 2.3476 z M145.22600000000003 17.65 l0.040136 2.3242 l-1.1621 0.02002 c-0.015039 0.0002539 -1.0275 0.017129 -3.0076 0.017129 c-1.0032 0 -2.2546 -0.0044532 -3.7506 -0.017402 c-2.4132 -0.021054 -4.3428 -0.54212 -5.7348 -1.549 c-1.3835 -1.0007 -2.1454 -2.4562 -2.1454 -4.0986 c0 -1.6413 0.76854 -3.1002 2.164 -4.1074 c1.383 -0.99846 3.3616 -1.531 5.7218 -1.5402 c4.441 -0.017129 6.719 0.00027344 6.7416 0.00041016 l1.1622 0.0091602 l-0.01832 2.3246 l-1.1622 -0.0091602 c-0.022364 -0.0002539 -2.2892 -0.01752 -6.7144 -0.00039062 c-3.4358 0.01334 -5.5702 1.2866 -5.5702 3.3232 c0 0.90194 0.39812 1.6473 1.1831 2.215 c0.97936 0.70836 2.4984 1.0916 4.3926 1.1081 c4.4144 0.038574 6.6758 0.00089844 6.698 0.00050782 z M175.22900000000004 8.617 l2.3476 0 l0 11.407 l-2.3476 0 l0 -4.5299 l-11.242 0 l0 4.5299 l-2.3477 0 l0 -11.407 l2.3477 0 l0 4.5299 l11.242 0 l0 -4.5299 z"/></g>
			</g>
		</svg>
	