<svg width="114" height="48" viewBox="0 0 114 48" fill="none" xmlns="http://www.w3.org/2000/svg">
<path d="M2.72 38V10H7.84V34H20.24V38H2.72ZM35.3322 38.48C32.5322 38.48 30.0789 37.8667 27.9722 36.64C25.8922 35.4133 24.2522 33.72 23.0522 31.56C21.8789 29.3733 21.2922 26.8533 21.2922 24C21.2922 21.1467 21.8789 18.64 23.0522 16.48C24.2522 14.2933 25.8922 12.5867 27.9722 11.36C30.0789 10.1333 32.5322 9.52 35.3322 9.52C38.1055 9.52 40.5455 10.1333 42.6522 11.36C44.7589 12.5867 46.3989 14.2933 47.5722 16.48C48.7455 18.64 49.3322 21.1467 49.3322 24C49.3322 26.8533 48.7455 29.3733 47.5722 31.56C46.3989 33.72 44.7589 35.4133 42.6522 36.64C40.5455 37.8667 38.1055 38.48 35.3322 38.48ZM35.3322 33.88C37.9989 33.88 40.1189 33 41.6922 31.24C43.2922 29.48 44.0922 27.0667 44.0922 24C44.0922 20.9333 43.2922 18.52 41.6922 16.76C40.1189 15 37.9989 14.12 35.3322 14.12C32.6655 14.12 30.5322 15 28.9322 16.76C27.3322 18.52 26.5322 20.9333 26.5322 24C26.5322 27.0667 27.3322 29.48 28.9322 31.24C30.5322 33 32.6655 33.88 35.3322 33.88ZM66.0928 38.48C63.4528 38.48 61.1461 37.88 59.1728 36.68C57.1995 35.48 55.6661 33.8133 54.5728 31.68C53.4795 29.52 52.9328 27.0133 52.9328 24.16C52.9328 21.28 53.4928 18.7467 54.6128 16.56C55.7595 14.3467 57.3728 12.6267 59.4528 11.4C61.5595 10.1467 64.0528 9.52 66.9328 9.52C70.2128 9.52 72.9328 10.3067 75.0928 11.88C77.2528 13.4533 78.6528 15.6267 79.2928 18.4H73.5728C73.1461 17.0933 72.3728 16.08 71.2528 15.36C70.1328 14.6133 68.6928 14.24 66.9328 14.24C64.1328 14.24 61.9728 15.1333 60.4528 16.92C58.9328 18.68 58.1728 21.1067 58.1728 24.2C58.1728 27.2933 58.9195 29.6933 60.4128 31.4C61.9328 33.08 63.9861 33.92 66.5728 33.92C69.1061 33.92 71.0128 33.24 72.2928 31.88C73.5995 30.4933 74.3861 28.68 74.6528 26.44H67.5728V22.6H79.8128V38H75.0928L74.6928 34.32C73.7861 35.6533 72.6528 36.68 71.2928 37.4C69.9328 38.12 68.1995 38.48 66.0928 38.48ZM97.9103 38.48C95.1103 38.48 92.657 37.8667 90.5503 36.64C88.4703 35.4133 86.8303 33.72 85.6303 31.56C84.457 29.3733 83.8703 26.8533 83.8703 24C83.8703 21.1467 84.457 18.64 85.6303 16.48C86.8303 14.2933 88.4703 12.5867 90.5503 11.36C92.657 10.1333 95.1103 9.52 97.9103 9.52C100.684 9.52 103.124 10.1333 105.23 11.36C107.337 12.5867 108.977 14.2933 110.15 16.48C111.324 18.64 111.91 21.1467 111.91 24C111.91 26.8533 111.324 29.3733 110.15 31.56C108.977 33.72 107.337 35.4133 105.23 36.64C103.124 37.8667 100.684 38.48 97.9103 38.48ZM97.9103 33.88C100.577 33.88 102.697 33 104.27 31.24C105.87 29.48 106.67 27.0667 106.67 24C106.67 20.9333 105.87 18.52 104.27 16.76C102.697 15 100.577 14.12 97.9103 14.12C95.2436 14.12 93.1103 15 91.5103 16.76C89.9103 18.52 89.1103 20.9333 89.1103 24C89.1103 27.0667 89.9103 29.48 91.5103 31.24C93.1103 33 95.2436 33.88 97.9103 33.88Z" fill="#333333"/>
</svg>
