<?xml version="1.0" encoding="UTF-8" standalone="no" ?>
<!DOCTYPE svg PUBLIC "-//W3C//DTD SVG 1.1//EN" "http://www.w3.org/Graphics/SVG/1.1/DTD/svg11.dtd">
<svg xmlns="http://www.w3.org/2000/svg" xmlns:xlink="http://www.w3.org/1999/xlink" version="1.1" width="200" height="200" viewBox="-48.89 -48.89 200 200" xml:space="preserve">
<desc>Created with Fabric.js 5.2.4</desc>
<defs>
</defs>
<rect x="0" y="0" width="100%" height="100%" fill="transparent"></rect>
<g transform="matrix(1 0 0 1 100 100)" id="aab5fdfd-bb1d-4dc8-9687-ae92632ea1a4"  >
<rect style="stroke: none; stroke-width: 1; stroke-dasharray: none; stroke-linecap: butt; stroke-dashoffset: 0; stroke-linejoin: miter; stroke-miterlimit: 4; fill: rgb(255,255,255); fill-rule: nonzero; opacity: 1; visibility: hidden;" vector-effect="non-scaling-stroke"  x="-100" y="-100" rx="0" ry="0" width="200" height="200" />
</g>
<g transform="matrix(Infinity NaN NaN Infinity 0 0)" id="104f07ee-1a5d-48a2-9d57-22e6738ba5e9"  >
</g>
<g transform="matrix(1.75 0 0 1.75 200 200)"  >
<path style="stroke: rgb(255,255,255); stroke-width: 1; stroke-dasharray: none; stroke-linecap: butt; stroke-dashoffset: 0; stroke-linejoin: miter; stroke-miterlimit: 4; fill: rgb(255,255,255); fill-rule: nonzero; opacity: 1;"  transform=" translate(-57.31, -24)" d="M 2.72 38 L 2.72 10 L 7.84 10 L 7.84 34 L 20.24 34 L 20.24 38 L 2.72 38 Z M 35.3322 38.48 C 32.5322 38.48 30.0789 37.8667 27.9722 36.64 C 25.8922 35.4133 24.2522 33.72 23.0522 31.56 C 21.8789 29.3733 21.2922 26.8533 21.2922 24 C 21.2922 21.1467 21.8789 18.64 23.0522 16.48 C 24.2522 14.2933 25.8922 12.5867 27.9722 11.36 C 30.0789 10.1333 32.5322 9.52 35.3322 9.52 C 38.1055 9.52 40.5455 10.1333 42.6522 11.36 C 44.7589 12.5867 46.3989 14.2933 47.5722 16.48 C 48.7455 18.64 49.3322 21.1467 49.3322 24 C 49.3322 26.8533 48.7455 29.3733 47.5722 31.56 C 46.3989 33.72 44.7589 35.4133 42.6522 36.64 C 40.5455 37.8667 38.1055 38.48 35.3322 38.48 Z M 35.3322 33.88 C 37.9989 33.88 40.1189 33 41.6922 31.24 C 43.2922 29.48 44.0922 27.0667 44.0922 24 C 44.0922 20.9333 43.2922 18.52 41.6922 16.76 C 40.1189 15 37.9989 14.12 35.3322 14.12 C 32.6655 14.12 30.5322 15 28.9322 16.76 C 27.3322 18.52 26.5322 20.9333 26.5322 24 C 26.5322 27.0667 27.3322 29.48 28.9322 31.24 C 30.5322 33 32.6655 33.88 35.3322 33.88 Z M 66.0928 38.48 C 63.4528 38.48 61.1461 37.88 59.1728 36.68 C 57.1995 35.48 55.6661 33.8133 54.5728 31.68 C 53.4795 29.52 52.9328 27.0133 52.9328 24.16 C 52.9328 21.28 53.4928 18.7467 54.6128 16.56 C 55.7595 14.3467 57.3728 12.6267 59.4528 11.4 C 61.5595 10.1467 64.0528 9.52 66.9328 9.52 C 70.2128 9.52 72.9328 10.3067 75.0928 11.88 C 77.2528 13.4533 78.6528 15.6267 79.2928 18.4 L 73.5728 18.4 C 73.1461 17.0933 72.3728 16.08 71.2528 15.36 C 70.1328 14.6133 68.6928 14.24 66.9328 14.24 C 64.1328 14.24 61.9728 15.1333 60.4528 16.92 C 58.9328 18.68 58.1728 21.1067 58.1728 24.2 C 58.1728 27.2933 58.9195 29.6933 60.4128 31.4 C 61.9328 33.08 63.9861 33.92 66.5728 33.92 C 69.1061 33.92 71.0128 33.24 72.2928 31.88 C 73.5995 30.4933 74.3861 28.68 74.6528 26.44 L 67.5728 26.44 L 67.5728 22.6 L 79.8128 22.6 L 79.8128 38 L 75.0928 38 L 74.6928 34.32 C 73.7861 35.6533 72.6528 36.68 71.2928 37.4 C 69.9328 38.12 68.1995 38.48 66.0928 38.48 Z M 97.9103 38.48 C 95.1103 38.48 92.657 37.8667 90.5503 36.64 C 88.4703 35.4133 86.8303 33.72 85.6303 31.56 C 84.457 29.3733 83.8703 26.8533 83.8703 24 C 83.8703 21.1467 84.457 18.64 85.6303 16.48 C 86.8303 14.2933 88.4703 12.5867 90.5503 11.36 C 92.657 10.1333 95.1103 9.52 97.9103 9.52 C 100.684 9.52 103.124 10.1333 105.23 11.36 C 107.337 12.5867 108.977 14.2933 110.15 16.48 C 111.324 18.64 111.91 21.1467 111.91 24 C 111.91 26.8533 111.324 29.3733 110.15 31.56 C 108.977 33.72 107.337 35.4133 105.23 36.64 C 103.124 37.8667 100.684 38.48 97.9103 38.48 Z M 97.9103 33.88 C 100.577 33.88 102.697 33 104.27 31.24 C 105.87 29.48 106.67 27.0667 106.67 24 C 106.67 20.9333 105.87 18.52 104.27 16.76 C 102.697 15 100.577 14.12 97.9103 14.12 C 95.2436 14.12 93.1103 15 91.5103 16.76 C 89.9103 18.52 89.1103 20.9333 89.1103 24 C 89.1103 27.0667 89.9103 29.48 91.5103 31.24 C 93.1103 33 95.2436 33.88 97.9103 33.88 Z" stroke-linecap="round" />
</g>
</svg>